<svg width="196" height="40" viewBox="0 0 196 40" fill="none" xmlns="http://www.w3.org/2000/svg">
  <rect x="1" y="1" width="38" height="38" rx="13" fill="white" stroke="#E6EAF3"/>
  <path d="M9 27.2C13.9 25.7 18.6 26.2 23 29.4C27.1 26.4 31 25.7 35 27.2" stroke="#D89B10" stroke-width="2.6" stroke-linecap="round"/>
  <path d="M9 24.2C13.8 22.7 18.6 23.3 23 26.2C27.5 23.2 31.4 22.7 35 24.2" stroke="#072F63" stroke-width="2.6" stroke-linecap="round"/>
  <path d="M13 10.4L23 5.1L33 10.4L23 15.6L13 10.4Z" fill="#072F63"/>
  <path d="M13.8 10.9V15" stroke="#D89B10" stroke-width="2" stroke-linecap="round"/>
  <circle cx="13.8" cy="16.5" r="1.8" fill="#D89B10"/>
  <path d="M27.8 16.8C26.6 15.2 24.8 14.2 22.5 14.2C18.9 14.2 16.2 16.9 16.2 20.1C16.2 23.4 18.9 26 22.5 26C24.7 26 26.4 25.2 27.8 23.5" stroke="#072F63" stroke-width="3.5" stroke-linecap="round"/>
  <text x="49" y="26" font-family="Inter, Arial, sans-serif" font-size="21" font-weight="650" letter-spacing="0" fill="#111827">Compétence</text>
</svg>
